<svg xmlns="http://www.w3.org/2000/svg" xmlns:xlink="http://www.w3.org/1999/xlink" width="500" zoomAndPan="magnify" viewBox="0 0 375 374.999991" height="500" preserveAspectRatio="xMidYMid meet" version="1.2"><g id="6575379ce0"><path style=" stroke:none;fill-rule:nonzero;fill:#00aeef;fill-opacity:1;" d="M 161.136719 25.183594 C 162.078125 25.183594 163.019531 25.183594 163.964844 25.175781 C 172.160156 25.121094 180.273438 25.578125 188.328125 27.21875 L 189.640625 27.484375 C 200.929688 29.789062 211.507812 33.65625 221.773438 38.863281 L 222.59375 39.273438 C 232.585938 44.285156 241.316406 50.90625 249.21875 58.757812 L 249.71875 59.253906 C 251.976562 61.488281 254.085938 63.855469 256.050781 66.351562 L 256.539062 66.960938 C 267.101562 80.089844 273.320312 95.703125 276.410156 112.164062 L 276.640625 113.382812 C 278.777344 125.230469 278.570312 138 276.410156 149.832031 L 276.21875 150.917969 C 274.003906 163.15625 269.636719 174.9375 265.699219 186.699219 C 259.8125 202.347656 259.8125 202.347656 258.867188 218.753906 C 259.386719 221.265625 260.457031 223.582031 262.15625 225.507812 C 265.097656 228.308594 268.222656 229.828125 272.128906 230.816406 C 274.789062 231.4375 277.386719 231.472656 280.101562 231.425781 L 280.867188 231.417969 C 284.671875 231.378906 288.3125 231.152344 292.019531 230.257812 L 292.925781 230.054688 C 299.742188 228.515625 306.421875 226.488281 312.789062 223.589844 C 313.433594 223.300781 314.09375 223.042969 314.757812 222.792969 L 315.773438 223.132812 C 314.320312 225.042969 312.574219 226.421875 310.683594 227.882812 L 309.996094 228.414062 C 295.75 239.335938 278.453125 248.222656 260.566406 250.929688 C 257.464844 251.332031 254.378906 251.429688 251.253906 251.445312 L 250.558594 251.453125 C 244.769531 251.488281 239.421875 250.453125 234.308594 247.679688 C 230.355469 245.269531 227.488281 242.304688 225.195312 238.28125 C 223.84375 235.6875 222.824219 233.097656 222.113281 230.257812 L 221.882812 229.351562 C 219.71875 219.03125 222.71875 207.636719 225.914062 197.867188 C 227.914062 191.820312 230.261719 185.914062 232.601562 179.992188 C 237.910156 166.523438 242.878906 153.082031 245.296875 138.761719 L 245.429688 137.976562 C 247.464844 125.890625 247.40625 112.945312 243.238281 101.296875 C 239.328125 90.886719 233.054688 81.953125 224.488281 74.835938 L 223.96875 74.398438 C 211.652344 64.097656 196.78125 58.113281 181.050781 55.328125 C 169.507812 53.371094 157.617188 53.398438 146.097656 55.492188 L 144.988281 55.683594 C 129.234375 58.441406 114.402344 64.273438 101.304688 73.476562 L 100.566406 73.992188 C 97.164062 76.378906 93.886719 78.855469 90.785156 81.621094 L 90.230469 82.113281 C 86.496094 85.4375 83.140625 89.019531 80.03125 92.9375 C 79.710938 93.34375 79.382812 93.75 79.058594 94.152344 C 75.992188 97.949219 73.25 101.855469 70.761719 106.054688 L 70.324219 106.796875 C 61.542969 121.78125 55.957031 138.375 53.796875 155.601562 C 53.746094 156.003906 53.695312 156.40625 53.640625 156.824219 C 52.238281 168.550781 52 180.859375 53.457031 192.589844 L 53.582031 193.632812 C 55.960938 212.308594 62.109375 230.75 72.460938 246.546875 L 72.886719 247.210938 C 75.871094 251.828125 79.101562 256.253906 82.640625 260.460938 L 83.515625 261.515625 C 87.925781 266.804688 92.632812 271.972656 97.910156 276.410156 C 98.277344 276.726562 98.644531 277.042969 99.011719 277.359375 C 101.320312 279.355469 103.648438 281.316406 106.054688 283.195312 L 106.96875 283.925781 C 112.816406 288.519531 119.019531 292.621094 125.398438 296.433594 L 126.207031 296.917969 C 136.4375 303.023438 147.148438 307.929688 158.316406 312.042969 C 158.683594 312.179688 159.054688 312.316406 159.4375 312.457031 C 172.476562 317.234375 186.214844 319.890625 199.949219 321.628906 L 201.015625 321.761719 C 202.039062 321.894531 203.066406 322.019531 204.089844 322.144531 L 204.996094 322.257812 C 209.878906 322.839844 214.75 322.957031 219.664062 322.957031 L 221.476562 322.960938 C 222.738281 322.964844 224 322.964844 225.265625 322.964844 C 226.53125 322.964844 227.800781 322.964844 229.070312 322.972656 C 239.890625 323.011719 250.558594 322.652344 261.308594 321.3125 L 262.378906 321.179688 C 267.472656 320.554688 272.539062 319.824219 277.597656 318.957031 L 278.4375 318.8125 C 282.058594 318.1875 285.644531 317.445312 289.222656 316.625 C 289.980469 316.453125 290.738281 316.285156 291.496094 316.121094 C 299.804688 314.292969 307.984375 312.175781 316.113281 309.667969 L 316.792969 309.457031 C 324.039062 307.222656 331.078125 304.472656 338.117188 301.660156 C 339.480469 301.117188 340.84375 300.613281 342.246094 300.164062 L 341.90625 301.183594 C 341.269531 301.679688 340.613281 302.148438 339.933594 302.582031 L 339.269531 303.015625 C 332.621094 307.316406 325.78125 311.3125 318.828125 315.097656 L 318.246094 315.417969 C 315.074219 317.15625 311.863281 318.710938 308.542969 320.144531 L 307.832031 320.453125 C 279.996094 332.503906 250.75 338.117188 200.605469 339.105469 L 199.476562 339.035156 C 180.371094 337.871094 161.300781 335.339844 143.042969 329.347656 L 141.574219 328.871094 C 134.105469 326.4375 126.804688 323.730469 119.628906 320.527344 L 118.554688 320.046875 C 113.386719 317.722656 108.527344 314.964844 103.679688 312.042969 L 102 311.039062 C 96.164062 307.542969 90.65625 303.625 85.355469 299.359375 L 84.722656 298.851562 C 81.167969 295.964844 77.890625 292.765625 74.660156 289.53125 C 74.089844 288.964844 73.523438 288.398438 72.949219 287.835938 C 70.722656 285.625 68.636719 283.285156 66.691406 280.820312 C 66.160156 280.199219 65.632812 279.578125 65.101562 278.957031 C 62.988281 276.425781 61.054688 273.769531 59.125 271.101562 C 58.601562 270.378906 58.070312 269.65625 57.539062 268.9375 C 52.636719 262.230469 48.480469 254.917969 44.632812 247.566406 L 44.136719 246.628906 C 34.265625 227.921875 28.421875 207.179688 26.648438 186.140625 L 26.574219 185.304688 C 24.269531 158.292969 29.855469 130.351562 42.160156 102.617188 C 46.179688 94.140625 50.730469 86.046875 56.363281 78.535156 C 56.804688 77.949219 57.242188 77.355469 57.671875 76.761719 C 62.984375 69.535156 69.324219 62.625 76.191406 56.847656 L 77.195312 55.960938 C 80.324219 53.199219 83.632812 50.75 87.050781 48.367188 L 87.695312 47.914062 C 91.605469 45.164062 95.761719 42.859375 99.945312 40.5625 L 100.835938 40.066406 C 114.472656 32.488281 129.652344 28 145.082031 25.96875 L 145.78125 25.875 C 150.886719 25.203125 155.996094 25.171875 161.136719 25.183594 "/><path style=" stroke:none;fill-rule:nonzero;fill:#00aeef;fill-opacity:1;" d="M 130.488281 111.484375 C 131.539062 111.773438 132.34375 112.171875 133.203125 112.84375 C 135.097656 114.953125 136.125 117.570312 136.753906 120.304688 C 139.085938 131.4375 136.925781 143.121094 133.480469 153.796875 C 131.152344 160.652344 127.867188 167.863281 122.515625 172.898438 C 121.007812 174.121094 119.46875 175.039062 117.550781 175.429688 C 116.335938 175.507812 115.269531 175.25 114.15625 174.796875 C 112.800781 174.035156 112.046875 173.058594 111.253906 171.734375 C 109.015625 167.394531 108.644531 162.878906 108.664062 158.0625 L 108.667969 157.367188 C 108.730469 144.691406 111.785156 131.808594 118.125 120.78125 C 120.101562 117.480469 122.671875 113.910156 126.078125 111.972656 C 127.546875 111.339844 128.914062 111.222656 130.488281 111.484375 M 184.445312 111.824219 C 185.839844 112.480469 186.652344 113.3125 187.542969 114.539062 C 190.128906 118.675781 190.691406 123.738281 190.882812 128.519531 C 191.121094 140.613281 187.882812 153.738281 182.09375 164.34375 C 180.019531 168.003906 177.660156 171.789062 174.09375 174.148438 C 172.8125 174.851562 171.617188 175.382812 170.152344 175.472656 C 168.5625 175.242188 167.402344 174.910156 166.121094 173.925781 C 164.386719 172 163.34375 169.628906 162.726562 167.140625 C 162.019531 163.347656 161.453125 159.460938 161.710938 155.601562 L 161.746094 154.878906 C 162.425781 142.691406 165.425781 129.789062 172.167969 119.46875 C 172.933594 118.355469 173.75 117.285156 174.605469 116.234375 L 175.023438 115.703125 C 176.511719 113.84375 178.246094 112.695312 180.375 111.675781 C 181.800781 111.410156 183.035156 111.484375 184.445312 111.824219 "/></g></svg>