<svg xmlns="http://www.w3.org/2000/svg" xmlns:xlink="http://www.w3.org/1999/xlink" width="288" zoomAndPan="magnify" viewBox="0 0 216 72" height="96" preserveAspectRatio="xMidYMid meet" version="1.2"><defs><clipPath id="96c49ef64f"><rect x="0" width="147" y="0" height="61"/></clipPath><clipPath id="2b857fde06"><rect x="0" width="29" y="0" height="61"/></clipPath></defs><g id="766dfa7ee3"><g transform="matrix(1,0,0,1,69,4)"><g clip-path="url(#96c49ef64f)"><g style="fill:#ffffff;fill-opacity:1;"><g transform="translate(0.770461, 48.134028)"><path style="stroke:none" d="M 4.296875 0 L 4.296875 -26.875 L 8.453125 -26.875 L 8.453125 -22.234375 L 8.84375 -22.234375 C 9.269531 -23.859375 10.125 -25.117188 11.40625 -26.015625 C 12.695312 -26.910156 14.300781 -27.359375 16.21875 -27.359375 C 17.550781 -27.359375 18.765625 -27.128906 19.859375 -26.671875 C 20.953125 -26.222656 21.878906 -25.582031 22.640625 -24.75 C 23.410156 -23.914062 24.003906 -22.921875 24.421875 -21.765625 C 24.847656 -20.609375 25.0625 -19.3125 25.0625 -17.875 L 25.0625 0 L 20.671875 0 L 20.671875 -17.15625 C 20.671875 -19.207031 20.148438 -20.800781 19.109375 -21.9375 C 18.066406 -23.070312 16.613281 -23.640625 14.75 -23.640625 C 12.894531 -23.640625 11.421875 -23.03125 10.328125 -21.8125 C 9.242188 -20.59375 8.703125 -18.941406 8.703125 -16.859375 L 8.703125 0 Z M 4.296875 0 "/></g></g><g style="fill:#ffffff;fill-opacity:1;"><g transform="translate(30.080594, 48.134028)"><path style="stroke:none" d="M 7.328125 -26.875 L 13.484375 -11.4375 C 13.773438 -10.6875 14.007812 -9.984375 14.1875 -9.328125 C 14.375 -8.679688 14.515625 -8.113281 14.609375 -7.625 C 14.734375 -7 14.816406 -6.441406 14.859375 -5.953125 L 15.1875 -5.953125 C 15.226562 -6.441406 15.3125 -6.984375 15.4375 -7.578125 C 15.539062 -8.097656 15.671875 -8.679688 15.828125 -9.328125 C 15.992188 -9.984375 16.207031 -10.6875 16.46875 -11.4375 L 22.140625 -26.875 L 26.875 -26.875 L 13.828125 8.0625 L 9.140625 8.0625 L 12.84375 -1.953125 L 2.4375 -26.875 Z M 7.328125 -26.875 "/></g></g><g style="fill:#ffffff;fill-opacity:1;"><g transform="translate(59.390726, 48.134028)"><path style="stroke:none" d="M 13.921875 0.484375 C 11.085938 0.484375 8.75 -0.15625 6.90625 -1.4375 C 5.070312 -2.726562 4.023438 -4.445312 3.765625 -6.59375 L 8.40625 -6.59375 C 8.601562 -5.644531 9.203125 -4.878906 10.203125 -4.296875 C 11.210938 -3.710938 12.453125 -3.421875 13.921875 -3.421875 L 15.296875 -3.421875 C 17.054688 -3.421875 18.421875 -3.785156 19.390625 -4.515625 C 20.367188 -5.253906 20.859375 -6.238281 20.859375 -7.46875 C 20.859375 -9.59375 19.363281 -10.878906 16.375 -11.328125 L 12.3125 -11.921875 C 9.675781 -12.316406 7.707031 -13.144531 6.40625 -14.40625 C 5.101562 -15.675781 4.453125 -17.453125 4.453125 -19.734375 C 4.453125 -22.148438 5.304688 -24.023438 7.015625 -25.359375 C 8.722656 -26.691406 11.109375 -27.359375 14.171875 -27.359375 L 15.53125 -27.359375 C 16.832031 -27.359375 18.035156 -27.195312 19.140625 -26.875 C 20.253906 -26.550781 21.234375 -26.085938 22.078125 -25.484375 C 22.929688 -24.878906 23.625 -24.160156 24.15625 -23.328125 C 24.695312 -22.492188 25.050781 -21.570312 25.21875 -20.5625 L 20.5625 -20.5625 C 20.375 -21.414062 19.820312 -22.109375 18.90625 -22.640625 C 18 -23.179688 16.875 -23.453125 15.53125 -23.453125 L 14.171875 -23.453125 C 12.503906 -23.453125 11.207031 -23.125 10.28125 -22.46875 C 9.351562 -21.820312 8.890625 -20.847656 8.890625 -19.546875 C 8.890625 -18.503906 9.207031 -17.710938 9.84375 -17.171875 C 10.476562 -16.640625 11.515625 -16.273438 12.953125 -16.078125 L 17 -15.484375 C 19.894531 -15.066406 22.003906 -14.222656 23.328125 -12.953125 C 24.648438 -11.679688 25.3125 -9.875 25.3125 -7.53125 C 25.3125 -5.019531 24.4375 -3.054688 22.6875 -1.640625 C 20.945312 -0.222656 18.484375 0.484375 15.296875 0.484375 Z M 13.921875 0.484375 "/></g></g><g style="fill:#ffffff;fill-opacity:1;"><g transform="translate(88.700859, 48.134028)"><path style="stroke:none" d="M 4.296875 -35.671875 L 8.703125 -35.671875 L 8.703125 -26.875 C 8.703125 -26.414062 8.691406 -25.914062 8.671875 -25.375 C 8.648438 -24.84375 8.625 -24.347656 8.59375 -23.890625 C 8.53125 -23.335938 8.484375 -22.785156 8.453125 -22.234375 L 8.84375 -22.234375 C 9.269531 -23.859375 10.125 -25.117188 11.40625 -26.015625 C 12.695312 -26.910156 14.300781 -27.359375 16.21875 -27.359375 C 17.550781 -27.359375 18.765625 -27.128906 19.859375 -26.671875 C 20.953125 -26.222656 21.878906 -25.582031 22.640625 -24.75 C 23.410156 -23.914062 24.003906 -22.921875 24.421875 -21.765625 C 24.847656 -20.609375 25.0625 -19.3125 25.0625 -17.875 L 25.0625 0 L 20.671875 0 L 20.671875 -17.15625 C 20.671875 -19.207031 20.148438 -20.800781 19.109375 -21.9375 C 18.066406 -23.070312 16.613281 -23.640625 14.75 -23.640625 C 12.894531 -23.640625 11.421875 -23.03125 10.328125 -21.8125 C 9.242188 -20.59375 8.703125 -18.941406 8.703125 -16.859375 L 8.703125 0 L 4.296875 0 Z M 4.296875 -35.671875 "/></g></g><g style="fill:#ffffff;fill-opacity:1;"><g transform="translate(118.010992, 48.134028)"><path style="stroke:none" d="M 5.46875 -26.875 L 9.625 -26.875 L 9.625 -22.234375 L 10.015625 -22.234375 C 10.441406 -23.828125 11.320312 -25.078125 12.65625 -25.984375 C 13.988281 -26.898438 15.632812 -27.359375 17.59375 -27.359375 C 20.425781 -27.359375 22.644531 -26.46875 24.25 -24.6875 C 25.863281 -22.914062 26.671875 -20.484375 26.671875 -17.390625 L 26.671875 -15.875 L 22.28125 -15.875 L 22.28125 -16.859375 C 22.28125 -18.972656 21.75 -20.609375 20.6875 -21.765625 C 19.632812 -22.921875 18.128906 -23.5 16.171875 -23.5 C 14.253906 -23.5 12.722656 -22.90625 11.578125 -21.71875 C 10.441406 -20.53125 9.875 -18.910156 9.875 -16.859375 L 9.875 0 L 5.46875 0 Z M 5.46875 -26.875 "/></g></g></g></g><g transform="matrix(1,0,0,1,0,4)"><g clip-path="url(#2b857fde06)"><g style="fill:#ffffff;fill-opacity:1;"><g transform="translate(-0.966569, 47.247732)"><path style="stroke:none" d="M 2.4375 -26.875 L 7.078125 -26.875 L 13.625 -7.859375 C 13.882812 -7.117188 14.078125 -6.460938 14.203125 -5.890625 C 14.335938 -5.316406 14.441406 -4.835938 14.515625 -4.453125 C 14.578125 -3.960938 14.609375 -3.535156 14.609375 -3.171875 L 15.046875 -3.171875 C 15.015625 -3.535156 15.03125 -3.960938 15.09375 -4.453125 C 15.15625 -4.835938 15.234375 -5.316406 15.328125 -5.890625 C 15.429688 -6.460938 15.613281 -7.117188 15.875 -7.859375 L 22.078125 -26.875 L 26.875 -26.875 L 17.25 0 L 12.265625 0 Z M 2.4375 -26.875 "/></g></g></g></g><path style=" stroke:none;fill-rule:nonzero;fill:#00aeef;fill-opacity:1;" d="M 47.171875 15.675781 C 47.289062 15.675781 47.40625 15.675781 47.523438 15.675781 C 48.550781 15.667969 49.566406 15.726562 50.574219 15.929688 L 50.738281 15.964844 C 52.152344 16.253906 53.476562 16.738281 54.761719 17.390625 L 54.863281 17.441406 C 56.113281 18.066406 57.207031 18.898438 58.195312 19.878906 L 58.257812 19.941406 C 58.542969 20.222656 58.804688 20.515625 59.050781 20.828125 L 59.113281 20.90625 C 60.433594 22.550781 61.214844 24.503906 61.601562 26.566406 L 61.628906 26.71875 C 61.898438 28.199219 61.871094 29.800781 61.601562 31.28125 L 61.578125 31.417969 C 61.300781 32.949219 60.753906 34.421875 60.261719 35.894531 C 59.523438 37.855469 59.523438 37.855469 59.40625 39.90625 C 59.46875 40.222656 59.605469 40.511719 59.816406 40.753906 C 60.183594 41.105469 60.574219 41.292969 61.066406 41.417969 C 61.398438 41.496094 61.722656 41.5 62.0625 41.492188 L 62.160156 41.492188 C 62.632812 41.488281 63.089844 41.460938 63.554688 41.347656 L 63.667969 41.320312 C 64.519531 41.128906 65.359375 40.875 66.15625 40.511719 C 66.234375 40.476562 66.316406 40.445312 66.402344 40.414062 L 66.527344 40.457031 C 66.347656 40.695312 66.128906 40.867188 65.890625 41.050781 L 65.804688 41.117188 C 64.023438 42.484375 61.855469 43.597656 59.617188 43.9375 C 59.230469 43.984375 58.84375 44 58.453125 44 L 58.363281 44 C 57.640625 44.003906 56.96875 43.875 56.332031 43.527344 C 55.835938 43.226562 55.476562 42.855469 55.191406 42.351562 C 55.019531 42.027344 54.894531 41.703125 54.804688 41.347656 L 54.773438 41.234375 C 54.503906 39.941406 54.878906 38.515625 55.28125 37.292969 C 55.53125 36.535156 55.824219 35.796875 56.117188 35.054688 C 56.78125 33.371094 57.402344 31.6875 57.707031 29.894531 L 57.722656 29.796875 C 57.976562 28.28125 57.96875 26.664062 57.449219 25.203125 C 56.957031 23.902344 56.171875 22.78125 55.101562 21.890625 L 55.035156 21.835938 C 53.496094 20.546875 51.632812 19.796875 49.664062 19.449219 C 48.21875 19.203125 46.730469 19.207031 45.289062 19.46875 L 45.148438 19.496094 C 43.175781 19.839844 41.320312 20.570312 39.679688 21.722656 L 39.589844 21.785156 C 39.164062 22.085938 38.753906 22.394531 38.363281 22.742188 L 38.292969 22.804688 C 37.828125 23.21875 37.40625 23.667969 37.019531 24.15625 C 36.976562 24.207031 36.9375 24.257812 36.894531 24.308594 C 36.511719 24.785156 36.167969 25.273438 35.859375 25.800781 L 35.800781 25.894531 C 34.703125 27.769531 34.003906 29.84375 33.734375 32.003906 C 33.726562 32.050781 33.722656 32.101562 33.714844 32.15625 C 33.539062 33.625 33.507812 35.164062 33.691406 36.632812 L 33.707031 36.761719 C 34.003906 39.101562 34.773438 41.410156 36.070312 43.386719 L 36.125 43.46875 C 36.496094 44.046875 36.902344 44.601562 37.34375 45.128906 L 37.453125 45.261719 C 38.007812 45.921875 38.59375 46.570312 39.257812 47.125 C 39.300781 47.164062 39.347656 47.203125 39.394531 47.242188 C 39.683594 47.492188 39.972656 47.738281 40.277344 47.976562 L 40.390625 48.066406 C 41.121094 48.640625 41.898438 49.15625 42.695312 49.632812 L 42.796875 49.691406 C 44.078125 50.457031 45.417969 51.070312 46.816406 51.585938 C 46.863281 51.601562 46.910156 51.621094 46.957031 51.636719 C 48.589844 52.234375 50.308594 52.566406 52.03125 52.785156 L 52.164062 52.800781 C 52.289062 52.820312 52.417969 52.835938 52.546875 52.851562 L 52.660156 52.863281 C 53.273438 52.9375 53.882812 52.953125 54.496094 52.953125 L 54.722656 52.953125 C 54.882812 52.953125 55.039062 52.953125 55.199219 52.953125 C 55.355469 52.953125 55.515625 52.953125 55.675781 52.953125 C 57.027344 52.957031 58.363281 52.914062 59.710938 52.746094 L 59.84375 52.730469 C 60.480469 52.652344 61.117188 52.558594 61.75 52.449219 L 61.855469 52.433594 C 62.308594 52.355469 62.757812 52.261719 63.203125 52.160156 C 63.300781 52.136719 63.394531 52.117188 63.488281 52.097656 C 64.527344 51.867188 65.554688 51.601562 66.570312 51.289062 L 66.65625 51.261719 C 67.5625 50.980469 68.445312 50.636719 69.324219 50.285156 C 69.496094 50.21875 69.667969 50.15625 69.84375 50.097656 L 69.800781 50.226562 C 69.71875 50.289062 69.636719 50.347656 69.550781 50.402344 L 69.46875 50.457031 C 68.636719 50.992188 67.78125 51.496094 66.910156 51.96875 L 66.835938 52.007812 C 66.441406 52.226562 66.039062 52.421875 65.625 52.601562 L 65.535156 52.636719 C 62.050781 54.148438 58.390625 54.851562 52.113281 54.972656 L 51.96875 54.964844 C 49.578125 54.820312 47.191406 54.503906 44.90625 53.753906 L 44.722656 53.691406 C 43.785156 53.386719 42.871094 53.050781 41.976562 52.648438 L 41.839844 52.585938 C 41.195312 52.296875 40.585938 51.953125 39.976562 51.585938 L 39.769531 51.460938 C 39.035156 51.023438 38.347656 50.53125 37.683594 49.996094 L 37.605469 49.933594 C 37.160156 49.574219 36.75 49.171875 36.34375 48.769531 C 36.273438 48.695312 36.203125 48.625 36.132812 48.554688 C 35.851562 48.277344 35.589844 47.984375 35.347656 47.675781 C 35.28125 47.597656 35.214844 47.523438 35.148438 47.445312 C 34.882812 47.128906 34.640625 46.792969 34.402344 46.460938 C 34.335938 46.371094 34.269531 46.28125 34.203125 46.191406 C 33.589844 45.351562 33.066406 44.433594 32.585938 43.515625 L 32.523438 43.398438 C 31.289062 41.054688 30.558594 38.457031 30.335938 35.824219 L 30.324219 35.71875 C 30.039062 32.339844 30.738281 28.839844 32.277344 25.371094 C 32.78125 24.308594 33.351562 23.296875 34.054688 22.355469 C 34.109375 22.28125 34.164062 22.207031 34.21875 22.132812 C 34.882812 21.226562 35.675781 20.363281 36.539062 19.640625 L 36.664062 19.527344 C 37.054688 19.183594 37.46875 18.875 37.898438 18.578125 L 37.976562 18.523438 C 38.464844 18.175781 38.988281 17.890625 39.511719 17.601562 L 39.621094 17.539062 C 41.328125 16.589844 43.230469 16.027344 45.160156 15.773438 L 45.25 15.761719 C 45.886719 15.679688 46.527344 15.675781 47.171875 15.675781 "/><path style=" stroke:none;fill-rule:nonzero;fill:#00aeef;fill-opacity:1;" d="M 43.335938 26.480469 C 43.464844 26.515625 43.566406 26.566406 43.675781 26.648438 C 43.910156 26.914062 44.039062 27.242188 44.117188 27.582031 C 44.410156 28.976562 44.140625 30.441406 43.707031 31.777344 C 43.417969 32.632812 43.007812 33.539062 42.335938 34.167969 C 42.148438 34.320312 41.953125 34.433594 41.714844 34.484375 C 41.5625 34.496094 41.429688 34.460938 41.289062 34.40625 C 41.121094 34.308594 41.027344 34.1875 40.925781 34.023438 C 40.644531 33.476562 40.597656 32.914062 40.601562 32.308594 L 40.601562 32.222656 C 40.609375 30.636719 40.992188 29.023438 41.785156 27.644531 C 42.035156 27.230469 42.355469 26.78125 42.78125 26.539062 C 42.964844 26.460938 43.136719 26.445312 43.335938 26.480469 M 50.089844 26.523438 C 50.261719 26.605469 50.363281 26.707031 50.476562 26.863281 C 50.800781 27.378906 50.871094 28.011719 50.894531 28.613281 C 50.925781 30.125 50.519531 31.769531 49.792969 33.097656 C 49.535156 33.554688 49.238281 34.027344 48.792969 34.324219 C 48.632812 34.410156 48.484375 34.476562 48.300781 34.488281 C 48.101562 34.460938 47.953125 34.417969 47.792969 34.296875 C 47.578125 34.054688 47.445312 33.757812 47.371094 33.445312 C 47.28125 32.972656 47.210938 32.484375 47.242188 32.003906 L 47.246094 31.910156 C 47.332031 30.386719 47.707031 28.769531 48.550781 27.480469 C 48.648438 27.339844 48.75 27.207031 48.855469 27.074219 L 48.910156 27.007812 C 49.09375 26.773438 49.3125 26.632812 49.578125 26.503906 C 49.757812 26.46875 49.910156 26.480469 50.089844 26.523438 "/></g></svg>